emg_normalized.mot
version=1
nRows=78
nColumns=17
in_degrees=yes
endheader
time	VM	VL	RF	GRA	TA	ADDLONG	SEMIMEM	BFLH	GM	GL	TFL	GLUTMAX	GLUTMED	PIRI	OBTINT	QF
1.482500	0.009430	0.029929	0.101818	0.049957	0.494715	0.083775	0.000000	0.000282	0.016778	0.008651	0.009750	0.108593	0.377758	0.495031	0.596638	0.260132
1.483000	0.009431	0.029990	0.100407	0.049796	0.494094	0.084296	0.000000	0.000998	0.016784	0.008640	0.009713	0.108654	0.373116	0.493299	0.591806	0.261185
1.483500	0.009433	0.030056	0.099033	0.049645	0.493468	0.084809	0.000000	0.001745	0.016791	0.008629	0.009679	0.108723	0.368458	0.491508	0.586941	0.262206
1.484000	0.009438	0.030132	0.097692	0.049509	0.492842	0.085312	0.000000	0.002523	0.016797	0.008618	0.009652	0.108800	0.363790	0.489657	0.582050	0.263193
1.484500	0.009443	0.030215	0.096380	0.049382	0.492216	0.085806	0.000000	0.003336	0.016804	0.008605	0.009627	0.108882	0.359113	0.487744	0.577133	0.264147
1.485000	0.009451	0.030302	0.095100	0.049266	0.491586	0.086290	0.000000	0.004180	0.016812	0.008594	0.009606	0.108974	0.354431	0.485765	0.572199	0.265067
1.485500	0.009461	0.030399	0.093853	0.049165	0.490951	0.086764	0.000000	0.005057	0.016819	0.008581	0.009590	0.109072	0.349747	0.483719	0.567252	0.265951
1.486000	0.009473	0.030503	0.092631	0.049072	0.490307	0.087228	0.000000	0.005968	0.016827	0.008570	0.009578	0.109177	0.345063	0.481605	0.562293	0.266797
1.486500	0.009485	0.030614	0.091446	0.048992	0.489659	0.087681	0.000000	0.006916	0.016834	0.008557	0.009572	0.109290	0.340382	0.479417	0.557328	0.267606
1.487000	0.009499	0.030732	0.090285	0.048922	0.489006	0.088122	0.000000	0.007898	0.016843	0.008547	0.009567	0.109411	0.335708	0.477156	0.552362	0.268376
1.487500	0.009516	0.030855	0.089158	0.048864	0.488340	0.088553	0.000000	0.008917	0.016850	0.008534	0.009567	0.109541	0.331042	0.474818	0.547396	0.269106
1.488000	0.009533	0.030987	0.088058	0.048818	0.487664	0.088971	0.000000	0.009972	0.016858	0.008521	0.009572	0.109678	0.326388	0.472401	0.542436	0.269795
1.488500	0.009553	0.031127	0.086988	0.048781	0.486980	0.089378	0.000000	0.011065	0.016867	0.008508	0.009578	0.109822	0.321748	0.469903	0.537484	0.270443
1.489000	0.009575	0.031275	0.085946	0.048756	0.486278	0.089773	0.000000	0.012195	0.016876	0.008495	0.009590	0.109975	0.317123	0.467322	0.532544	0.271048
1.489500	0.009599	0.031429	0.084933	0.048740	0.485568	0.090155	0.000000	0.013364	0.016883	0.008482	0.009606	0.110135	0.312518	0.464657	0.527620	0.271610
1.490000	0.009624	0.031590	0.083945	0.048735	0.484839	0.090524	0.000256	0.014572	0.016892	0.008470	0.009624	0.110303	0.307932	0.461908	0.522714	0.272128
1.490500	0.009652	0.031760	0.082990	0.048740	0.484092	0.090880	0.001058	0.015821	0.016901	0.008455	0.009647	0.110480	0.303369	0.459075	0.517827	0.272603
1.491000	0.009681	0.031935	0.082054	0.048754	0.483332	0.091223	0.001892	0.017109	0.016910	0.008442	0.009672	0.110665	0.298831	0.456158	0.512965	0.273033
1.491500	0.009713	0.032119	0.081152	0.048779	0.482550	0.091553	0.002756	0.018439	0.016917	0.008428	0.009702	0.110857	0.294319	0.453158	0.508129	0.273417
1.492000	0.009747	0.032310	0.080275	0.048816	0.481749	0.091870	0.003651	0.019811	0.016926	0.008413	0.009734	0.111058	0.289836	0.450076	0.503322	0.273757
1.492500	0.009782	0.032509	0.079422	0.048860	0.480927	0.092173	0.004578	0.021224	0.016935	0.008398	0.009768	0.111266	0.285383	0.446914	0.498545	0.274051
1.493000	0.009820	0.032717	0.078597	0.048915	0.480082	0.092464	0.005538	0.022681	0.016942	0.008384	0.009807	0.111484	0.280961	0.443673	0.493801	0.274299
1.493500	0.009859	0.032932	0.077798	0.048982	0.479210	0.092742	0.006531	0.024181	0.016951	0.008369	0.009851	0.111709	0.276573	0.440358	0.489090	0.274502
1.494000	0.009901	0.033154	0.077022	0.049056	0.478320	0.093007	0.007557	0.025725	0.016959	0.008353	0.009894	0.111941	0.272221	0.436970	0.484418	0.274659
1.494500	0.009945	0.033383	0.076272	0.049142	0.477399	0.093261	0.008617	0.027315	0.016968	0.008336	0.009942	0.112184	0.267904	0.433514	0.479783	0.274771
1.495000	0.009992	0.033619	0.075546	0.049239	0.476451	0.093501	0.009713	0.028949	0.016975	0.008320	0.009995	0.112433	0.263626	0.429993	0.475188	0.274837
1.495500	0.010040	0.033865	0.074841	0.049345	0.475476	0.093730	0.010843	0.030628	0.016982	0.008303	0.010050	0.112692	0.259388	0.426411	0.470635	0.274859
1.496000	0.010091	0.034118	0.074164	0.049461	0.474470	0.093947	0.012009	0.032356	0.016990	0.008287	0.010107	0.112958	0.255190	0.422770	0.466123	0.274837
1.496500	0.010144	0.034378	0.073508	0.049585	0.473433	0.094152	0.013212	0.034130	0.016996	0.008268	0.010166	0.113233	0.251035	0.419075	0.461655	0.274771
1.497000	0.010199	0.034647	0.072876	0.049722	0.472365	0.094346	0.014451	0.035950	0.017003	0.008252	0.010230	0.113516	0.246922	0.415329	0.457232	0.274661
1.497500	0.010256	0.034924	0.072265	0.049867	0.471260	0.094528	0.015727	0.037820	0.017009	0.008234	0.010297	0.113808	0.242856	0.411535	0.452855	0.274509
1.498000	0.010316	0.035209	0.071675	0.050022	0.470120	0.094700	0.017042	0.039739	0.017015	0.008214	0.010365	0.114108	0.238835	0.407696	0.448524	0.274313
1.498500	0.010378	0.035500	0.071109	0.050188	0.468940	0.094861	0.018395	0.041706	0.017020	0.008195	0.010436	0.114418	0.234862	0.403817	0.444240	0.274075
1.499000	0.010442	0.035802	0.070563	0.050366	0.467724	0.095012	0.019786	0.043723	0.017026	0.008175	0.010512	0.114736	0.230939	0.399899	0.440003	0.273796
1.499500	0.010509	0.036110	0.070038	0.050551	0.466467	0.095153	0.021218	0.045791	0.017030	0.008157	0.010589	0.115063	0.227065	0.395946	0.435814	0.273477
1.500000	0.010579	0.036426	0.069534	0.050750	0.465166	0.095283	0.022689	0.047910	0.017033	0.008135	0.010669	0.115401	0.223243	0.391962	0.431674	0.273118
1.500500	0.010651	0.036752	0.069050	0.050958	0.463825	0.095405	0.024201	0.050080	0.017037	0.008115	0.010752	0.115747	0.219473	0.387949	0.427582	0.272722
1.501000	0.010724	0.037085	0.068582	0.051175	0.462434	0.095517	0.025755	0.052302	0.017040	0.008095	0.010839	0.116104	0.215758	0.383909	0.423537	0.272288
1.501500	0.010801	0.037426	0.068140	0.051404	0.460999	0.095620	0.027349	0.054575	0.017043	0.008073	0.010926	0.116470	0.212096	0.379848	0.419541	0.271818
1.502000	0.010881	0.037775	0.067713	0.051642	0.459515	0.095715	0.028986	0.056902	0.017045	0.008051	0.011017	0.116846	0.208491	0.375767	0.415593	0.271313
1.502500	0.010962	0.038134	0.067307	0.051891	0.457981	0.095801	0.030665	0.059283	0.017046	0.008029	0.011109	0.117233	0.204942	0.371668	0.411692	0.270773
1.503000	0.011046	0.038501	0.066917	0.052152	0.456398	0.095879	0.032387	0.061718	0.017048	0.008005	0.011205	0.117630	0.201450	0.367557	0.407838	0.270201
1.503500	0.011133	0.038876	0.066548	0.052422	0.454762	0.095949	0.034153	0.064205	0.017049	0.007981	0.011303	0.118038	0.198018	0.363434	0.404030	0.269596
1.504000	0.011223	0.039259	0.066196	0.052704	0.453068	0.096013	0.035962	0.066749	0.017049	0.007957	0.011404	0.118456	0.194644	0.359303	0.400270	0.268960
1.504500	0.011316	0.039651	0.065859	0.052998	0.451319	0.096069	0.037816	0.069347	0.017049	0.007934	0.011507	0.118885	0.191330	0.355167	0.396553	0.268294
1.505000	0.011410	0.040053	0.065539	0.053300	0.449518	0.096118	0.039715	0.072000	0.017048	0.007908	0.011609	0.119326	0.188078	0.351028	0.392882	0.267598
1.505500	0.011508	0.040464	0.065236	0.053615	0.447658	0.096161	0.041660	0.074709	0.017046	0.007882	0.011717	0.119777	0.184887	0.346888	0.389255	0.266874
1.506000	0.011607	0.040882	0.064953	0.053938	0.445735	0.096198	0.043650	0.077475	0.017045	0.007857	0.011827	0.120239	0.181758	0.342751	0.385671	0.266122
1.506500	0.011711	0.041310	0.064682	0.054275	0.443759	0.096230	0.045686	0.080296	0.017043	0.007829	0.011939	0.120712	0.178694	0.338618	0.382131	0.265343
1.507000	0.011817	0.041747	0.064428	0.054622	0.441720	0.096257	0.047769	0.083175	0.017040	0.007802	0.012051	0.121198	0.175692	0.334491	0.378633	0.264538
1.507500	0.011926	0.042191	0.064186	0.054980	0.439623	0.096279	0.049900	0.086112	0.017037	0.007774	0.012168	0.121692	0.172755	0.330374	0.375176	0.263708
1.508000	0.012039	0.042647	0.063965	0.055350	0.437468	0.096298	0.052077	0.089104	0.017033	0.007745	0.012284	0.122200	0.169883	0.326267	0.371762	0.262855
1.508500	0.012152	0.043113	0.063751	0.055731	0.435251	0.096312	0.054301	0.092154	0.017029	0.007716	0.012405	0.122718	0.167076	0.322172	0.368389	0.261978
1.509000	0.012271	0.043585	0.063554	0.056124	0.432975	0.096323	0.056576	0.095263	0.017024	0.007687	0.012527	0.123248	0.164336	0.318093	0.365056	0.261080
1.509500	0.012391	0.044067	0.063374	0.056526	0.430641	0.096331	0.058898	0.098429	0.017018	0.007657	0.012652	0.123789	0.161662	0.314030	0.361764	0.260163
1.510000	0.012516	0.044561	0.063206	0.056942	0.428244	0.096337	0.061269	0.101654	0.017012	0.007626	0.012778	0.124341	0.159054	0.309985	0.358511	0.259227
1.510500	0.012643	0.045062	0.063050	0.057369	0.425794	0.096341	0.063690	0.104938	0.017005	0.007593	0.012906	0.124903	0.156514	0.305961	0.355299	0.258275
1.511000	0.012773	0.045575	0.062907	0.057806	0.423282	0.096343	0.066161	0.108279	0.016997	0.007560	0.013037	0.125478	0.154042	0.301958	0.352127	0.257307
1.511500	0.012907	0.046095	0.062775	0.058256	0.420715	0.096343	0.068682	0.111680	0.016990	0.007527	0.013169	0.126063	0.151636	0.297978	0.348995	0.256327
1.512000	0.013045	0.046626	0.062660	0.058716	0.418086	0.096343	0.071254	0.115138	0.016981	0.007494	0.013302	0.126660	0.149299	0.294023	0.345903	0.255335
1.512500	0.013185	0.047167	0.062554	0.059190	0.415404	0.096341	0.073879	0.118655	0.016972	0.007460	0.013439	0.127268	0.147029	0.290094	0.342851	0.254334
1.513000	0.013328	0.047715	0.062460	0.059675	0.412663	0.096340	0.076554	0.122231	0.016962	0.007425	0.013579	0.127887	0.144828	0.286193	0.339839	0.253325
1.513500	0.013476	0.048275	0.062377	0.060169	0.409864	0.096338	0.079282	0.125866	0.016950	0.007388	0.013718	0.128517	0.142695	0.282319	0.336869	0.252309
1.514000	0.013626	0.048847	0.062308	0.060677	0.407007	0.096337	0.082062	0.129560	0.016938	0.007352	0.013860	0.129156	0.140630	0.278477	0.333939	0.251288
1.514500	0.013780	0.049426	0.062246	0.061197	0.404096	0.096336	0.084896	0.133312	0.016926	0.007315	0.014006	0.129806	0.138634	0.274664	0.331050	0.250263
1.515000	0.013938	0.050017	0.062201	0.061729	0.401128	0.096336	0.087784	0.137120	0.016913	0.007277	0.014153	0.130468	0.136707	0.270883	0.328206	0.249237
1.515500	0.014100	0.050614	0.062160	0.062272	0.398105	0.096337	0.090725	0.140988	0.016898	0.007238	0.014301	0.131139	0.134847	0.267135	0.325405	0.248209
1.516000	0.014266	0.051224	0.062131	0.062826	0.395029	0.096340	0.093722	0.144915	0.016883	0.007198	0.014450	0.131820	0.133055	0.263420	0.322650	0.247183
1.516500	0.014434	0.051843	0.062115	0.063392	0.391899	0.096344	0.096773	0.148898	0.016867	0.007160	0.014603	0.132510	0.131332	0.259740	0.319941	0.246159
1.517000	0.014607	0.052472	0.062107	0.063972	0.388716	0.096349	0.099880	0.152939	0.016850	0.007118	0.014757	0.133212	0.129677	0.256095	0.317281	0.245140
1.517500	0.014784	0.053112	0.062111	0.064563	0.385479	0.096358	0.103045	0.157037	0.016831	0.007077	0.014912	0.133921	0.128089	0.252485	0.314670	0.244125
1.518000	0.014963	0.053759	0.062119	0.065164	0.382197	0.096369	0.106266	0.161192	0.016813	0.007035	0.015070	0.134639	0.126569	0.248910	0.312110	0.243116
1.518500	0.015148	0.054418	0.062140	0.065779	0.378862	0.096383	0.109543	0.165402	0.016792	0.006991	0.015230	0.135367	0.125116	0.245373	0.309602	0.242116
1.519000	0.015336	0.055085	0.062168	0.066405	0.375482	0.096399	0.112880	0.169669	0.016772	0.006949	0.015392	0.136103	0.123730	0.241872	0.307147	0.241124
1.519500	0.015527	0.055763	0.062205	0.067045	0.372052	0.096419	0.116275	0.173992	0.016749	0.006905	0.015555	0.136848	0.122410	0.238409	0.304746	0.240142
1.520000	0.015723	0.056450	0.062254	0.067694	0.368583	0.096442	0.119729	0.178369	0.016726	0.006860	0.015719	0.137601	0.121156	0.234983	0.302400	0.239171
1.520500	0.015923	0.057145	0.062308	0.068355	0.365073	0.096469	0.123244	0.182799	0.016702	0.006816	0.015886	0.138363	0.119969	0.231594	0.300112	0.238213
1.521000	0.016126	0.057851	0.062365	0.069029	0.361523	0.096499	0.126818	0.187284	0.016677	0.006770	0.016056	0.139131	0.118848	0.228243	0.297882	0.237267
